<?xml version="1.0" encoding="UTF-8" standalone="no"?>
<!-- Created with Inkscape (http://www.inkscape.org/) -->

<svg
   xmlns:dc="http://purl.org/dc/elements/1.1/"
   xmlns:cc="http://creativecommons.org/ns#"
   xmlns:rdf="http://www.w3.org/1999/02/22-rdf-syntax-ns#"
   xmlns:svg="http://www.w3.org/2000/svg"
   xmlns="http://www.w3.org/2000/svg"
   xmlns:sodipodi="http://sodipodi.sourceforge.net/DTD/sodipodi-0.dtd"
   xmlns:inkscape="http://www.inkscape.org/namespaces/inkscape"
   version="1.1"
   id="svg2"
   width="762.70752"
   height="625.15375"
   viewBox="0 0 762.70752 625.15375"
   sodipodi:docname="addnote_white.svg"
   inkscape:version="0.92.3 (2405546, 2018-03-11)">
  <metadata
     id="metadata8">
    <rdf:RDF>
      <cc:Work
         rdf:about="">
        <dc:format>image/svg+xml</dc:format>
        <dc:type
           rdf:resource="http://purl.org/dc/dcmitype/StillImage" />
        <dc:title></dc:title>
      </cc:Work>
    </rdf:RDF>
  </metadata>
  <defs
     id="defs6" />
  <sodipodi:namedview
     pagecolor="#ffffff"
     bordercolor="#666666"
     borderopacity="1"
     objecttolerance="10"
     gridtolerance="10"
     guidetolerance="10"
     inkscape:pageopacity="0"
     inkscape:pageshadow="2"
     inkscape:window-width="1920"
     inkscape:window-height="1016"
     id="namedview4"
     showgrid="false"
     fit-margin-top="0"
     fit-margin-left="0"
     fit-margin-right="0"
     fit-margin-bottom="0"
     inkscape:zoom="0.266577"
     inkscape:cx="1455.7529"
     inkscape:cy="915.21668"
     inkscape:window-x="0"
     inkscape:window-y="27"
     inkscape:window-maximized="1"
     inkscape:current-layer="svg2" />
  <path
     style="fill:#ffffff"
     d="m 235.41738,620.72825 c -8.73156,-5.11126 -13.14812,-9.72728 -16.77144,-17.52887 -2.29274,-4.93664 -2.63555,-7.19285 -3.12173,-20.54563 -0.30038,-8.25 -0.53687,-15.05887 -0.52554,-15.13082 0.0113,-0.0719 8.68312,-0.33022 19.27062,-0.57394 l 19.25,-0.44313 v 10.32394 10.32395 h 235 235.00001 V 391.21404 195.27433 l -63.77289,-0.31029 -63.77287,-0.31029 -6.64882,-3.27411 c -7.59223,-3.73868 -15.27355,-11.43186 -18.91052,-18.93971 -2.02472,-4.17966 -2.40969,-6.94047 -3.03783,-21.78618 -0.39561,-9.35 -0.75029,-38.2625 -0.78818,-64.25 l -0.0689,-47.25 h -156.5 -156.5 v 9.98584 9.98585 l -19.10655,-0.34136 -19.10656,-0.34136 0.15569,-13.7383 c 0.17586,-15.51808 1.49527,-20.5298 7.58267,-28.80229 4.28247,-5.81967 9.88348,-9.98239 17.32993,-12.87975 l 5.64482,-2.19635 180,-0.41302 180,-0.41301 78.34411,78.42338 78.3441,78.42337 -0.4318,217.9035 c -0.4044,204.09119 -0.5427,218.25213 -2.1823,223.4035 -3.6025,11.31831 -9.4689,17.92796 -21.2053,23.89197 l -6.1162,3.10803 H 487.87468 242.97747 Z M 704.9916,156.19849 c 0.6298,-1.01891 -96.85653,-99.04474 -98.49954,-99.04474 -0.61739,0 -0.97277,18.26646 -0.97277,50 v 50 h 49.44098 c 30.33833,0 49.66913,-0.36909 50.03133,-0.95526 z M 201.51929,540.12852 c -22.93406,-3.16252 -51.73821,-11.54265 -71,-20.65637 -37.595692,-17.78842 -70.239472,-46.33073 -93.575532,-81.8184 -49.46547,-75.22326 -49.24001,-173.47512 0.57117,-248.90356 28.02949,-42.44471 69.678282,-74.48997 117.624262,-90.50204 27.43089,-9.16084 52.05448,-12.77195 80.3801,-11.78796 95.6291,3.32202 177.8944,65.32793 208.36451,157.05079 16.07278,48.38318 14.6007,104.49016 -3.98513,151.89003 -12.5523,32.01244 -29.89491,57.4821 -57.02828,83.75274 -32.56065,31.52536 -71.86324,51.08076 -118.8511,59.13555 -13.52747,2.31892 -51.02021,3.42223 -62.5,1.83922 z m 56.5,-43.41649 c 29.00559,-5.15208 57.68127,-17.46992 80.16719,-34.43638 36.20776,-27.32009 59.96714,-64.37717 71.00083,-110.73872 2.73074,-11.47411 2.82742,-12.7782 2.80836,-37.88318 -0.019,-24.97124 -0.13086,-26.47019 -2.8281,-37.88318 -17.78128,-75.23884 -72.05206,-128.60241 -146.64828,-144.19687 -10.21864,-2.13622 -14.07827,-2.40497 -34.63953,-2.41202 -24.65295,-0.008 -31.3995,0.77124 -48.86047,5.6467 -67.64169,18.88697 -116.529972,70.64429 -133.148282,140.96219 -2.69724,11.41299 -2.80915,12.91194 -2.8281,37.88318 -0.0191,25.10498 0.0776,26.40907 2.80836,37.88318 9.31621,39.14502 26.79041,70.28923 54.06988,96.36858 28.582082,27.32464 67.794892,45.74188 107.098142,50.30121 10.51619,1.21992 40.69682,0.33539 51,-1.49469 z m -38,-60.96614 c -1.65,-0.73126 -4.26032,-2.51331 -5.80071,-3.96011 -5.66727,-5.32291 -5.69929,-5.62637 -5.69929,-54.0202 v -44.4524 l -45.25,-0.32971 -45.25,-0.32972 -4.51075,-2.65194 c -6.01013,-3.53346 -9.26605,-9.31988 -9.20283,-16.3553 0.0531,-5.90987 1.68896,-9.71918 5.8743,-13.67914 5.43784,-5.14501 5.77978,-5.18076 53.54261,-5.598 l 44.70332,-0.39052 0.29668,-45.73732 0.29667,-45.73733 2.355,-3.42522 c 4.94908,-7.19817 12.77896,-10.22837 20.895,-8.08647 6.06315,1.60013 12.03736,7.32709 13.2936,12.7434 0.49978,2.15481 0.91942,23.34086 0.93254,47.0801 l 0.0239,43.16226 44.75,0.39081 c 47.81283,0.41755 48.15102,0.45288 53.58928,5.59829 4.23066,4.00285 5.80358,7.74708 5.80358,13.81511 0,7.09766 -3.33035,12.96739 -9.2948,16.38202 l -4.3481,2.48925 -45.2033,0.32946 -45.2033,0.32945 -0.2967,45.74532 -0.2967,45.74532 -2.5,3.65079 c -4.99732,7.29768 -15.87265,10.67218 -23.5,7.2918 z m 185.24365,65.52905 c 7.92047,-7.02435 22.70913,-22.02535 27.4767,-27.87119 l 2.65053,-3.25 104.81456,0.064 c 116.0927,0.0709 131.89487,0.4856 136.02607,3.56999 6.5081,4.85893 9.0373,17.99902 4.8246,25.06516 -3.605,6.04686 -6.9329,7.60618 -18.00487,8.43634 -5.51718,0.41367 -67.5216,0.77742 -137.78759,0.80833 l -127.75634,0.0562 z m 74.73165,-112.87119 c 1.00848,-2.56042 7.29899,-28.09957 8.02526,-32.58213 l 0.62088,-3.83212 90.18928,0.33212 90.18929,0.33213 4.4613,2.5 c 11.7061,6.55984 13.3334,21.20206 3.4174,30.75 l -4.4138,4.25 h -96.58946 c -91.58585,0 -96.55372,-0.0906 -95.90015,-1.75 z m 7.10984,-123 c -1.38752,-7.19004 -4.20106,-18.32127 -7.20368,-28.5 -0.48613,-1.64793 2.04438,-1.75 43.38663,-1.75 24.14657,0 67.62244,0.29885 96.61304,0.66411 l 52.71018,0.66412 4.3293,3.81082 c 5.024,4.42225 7.0722,10.39202 6.0056,17.50412 -0.9056,6.03945 -4.0653,10.34943 -9.958,13.58347 l -4.9682,2.72664 -89.61316,0.0234 -89.61316,0.0234 -1.68855,-8.75 z"
     id="path12"
     inkscape:connector-curvature="0" />
</svg>
