<?xml version="1.0" encoding="UTF-8" standalone="no"?>
<!-- Created with Inkscape (http://www.inkscape.org/) -->

<svg
   xmlns:dc="http://purl.org/dc/elements/1.1/"
   xmlns:cc="http://creativecommons.org/ns#"
   xmlns:rdf="http://www.w3.org/1999/02/22-rdf-syntax-ns#"
   xmlns:svg="http://www.w3.org/2000/svg"
   xmlns="http://www.w3.org/2000/svg"
   xmlns:sodipodi="http://sodipodi.sourceforge.net/DTD/sodipodi-0.dtd"
   xmlns:inkscape="http://www.inkscape.org/namespaces/inkscape"
   width="282.51993mm"
   height="206.96559mm"
   viewBox="0 0 282.51993 206.96559"
   version="1.1"
   id="svg29"
   inkscape:version="0.92.3 (2405546, 2018-03-11)"
   sodipodi:docname="listnotes_white.svg">
  <defs
     id="defs23" />
  <sodipodi:namedview
     id="base"
     pagecolor="#ffffff"
     bordercolor="#666666"
     borderopacity="1.0"
     inkscape:pageopacity="0.0"
     inkscape:pageshadow="2"
     inkscape:zoom="0.35"
     inkscape:cx="728.18166"
     inkscape:cy="88.258948"
     inkscape:document-units="mm"
     inkscape:current-layer="layer1"
     showgrid="false"
     fit-margin-top="0"
     fit-margin-left="0"
     fit-margin-right="0"
     fit-margin-bottom="0"
     inkscape:window-width="1920"
     inkscape:window-height="1016"
     inkscape:window-x="0"
     inkscape:window-y="27"
     inkscape:window-maximized="1" />
  <metadata
     id="metadata26">
    <rdf:RDF>
      <cc:Work
         rdf:about="">
        <dc:format>image/svg+xml</dc:format>
        <dc:type
           rdf:resource="http://purl.org/dc/dcmitype/StillImage" />
        <dc:title></dc:title>
      </cc:Work>
    </rdf:RDF>
  </metadata>
  <g
     inkscape:label="Calque 1"
     inkscape:groupmode="layer"
     id="layer1"
     transform="translate(86.831399,34.780414)">
    <path
       style="fill:#ffffff;stroke-width:0.26458332"
       d="m -80.937995,171.18621 c -2.319308,-1.23177 -3.797578,-2.68707 -4.780312,-4.70603 l -0.764704,-1.57104 -0.176056,-8.46666 c -0.229685,-11.04554 -0.229815,-122.928678 -1.54e-4,-133.746882 l 0.17693,-8.334375 0.725069,-1.488014 c 1.128485,-2.315919 2.58726,-3.784664 4.88881,-4.922221 l 2.019395,-0.998099 47.747306,-0.08935 47.747312,-0.08934 20.72746,20.726214 20.72749,20.726213 -0.0233,53.181884 c -0.0127,29.25004 -0.10609,55.5036 -0.20738,58.34126 -0.17171,4.81093 -0.23124,5.26116 -0.88169,6.66657 -0.91774,1.98299 -2.64692,3.67136 -4.94578,4.82904 l -1.86621,0.9398 -64.63107,-0.008 -64.631096,-0.008 z M 47.781801,110.29183 v -51.8392 l -16.7349,-0.09301 C 14.494301,58.26763 14.296031,58.26022 12.844919,57.680313 10.844933,56.881052 8.6615924,54.872216 7.5561104,52.814223 L 6.6558654,51.138306 6.4717684,44.259139 C 6.3704854,40.475598 6.2774054,32.825832 6.2649164,27.25966 L 6.2421624,17.139348 H -35.165129 -76.572421 v 72.495828 72.495844 h 62.177083 62.177079 z M -59.24216,140.97864 c -3.063001,-0.12121 -3.856169,-0.23817 -4.582345,-0.67575 -1.420653,-0.85606 -2.033693,-2.09862 -2.023321,-4.10104 0.01085,-2.10918 0.530436,-3.17615 2.029539,-4.16832 l 1.097677,-0.72647 45.227716,-0.0775 c 26.0207924,-0.0446 46.754255,0.0269 48.822345,0.16842 l 3.59463,0.24591 0.85669,0.9348 c 2.03174,2.21702 1.76575,5.91443 -0.54964,7.64011 -0.72311,0.53896 -1.22566,0.62397 -4.64725,0.78615 -4.49053,0.21285 -84.373428,0.18944 -89.826041,-0.0263 z m -4.994989,-32.09502 c -1.908281,-1.83745 -2.263987,-4.52391 -0.872384,-6.5889 1.237615,-1.83651 1.763633,-1.99896 7.120493,-2.19897 2.657766,-0.0992 24.358547,-0.141974 48.2239644,-0.095 39.7813166,0.0784 43.4577066,0.12189 44.1854166,0.52334 3.30062,1.82082 3.69239,6.23197 0.76763,8.64281 l -1.02049,0.84118 h -48.618408 -48.618404 z m 5.106167,-29.817084 c -3.375448,-0.13808 -3.661066,-0.19209 -4.717124,-0.89208 -2.604822,-1.72653 -2.872581,-5.45697 -0.554196,-7.72081 0.976286,-0.95333 1.222164,-1.05492 2.979817,-1.23116 1.05365,-0.10565 22.9108,-0.19945 48.571441,-0.20845 l 46.655695,-0.0164 1.16486,0.83652 c 1.99387,1.4319 2.69264,3.75135 1.84563,6.12631 -0.47295,1.32606 -1.06987,1.955 -2.58445,2.72306 l -1.24796,0.63286 -44.260377,-0.0515 c -24.343175,-0.0283 -45.877189,-0.1176 -47.853336,-0.19844 z M 42.613801,48.119505 c 0.44376,-0.173466 -1.39068,-2.122728 -12.43542,-13.213823 -7.12578,-7.155688 -13.10479,-13.008877 -13.28669,-13.007089 -0.26013,0.0026 -0.33073,2.827213 -0.33073,13.232421 v 13.229167 l 12.76615,-0.0186 c 7.02138,-0.01024 13.00038,-0.110162 13.28669,-0.222078 z m 23.95341,98.401095 v -5.02708 h 25.00313 25.003119 V 89.510356 37.5272 l -16.999469,-0.07362 -16.99948,-0.07361 -1.52551,-0.772565 c -1.90598,-0.965266 -3.97375,-3.123264 -4.89985,-5.113716 l -0.70815,-1.522053 -0.17749,-12.303125 c -0.0976,-6.766718 -0.1892,-14.357326 -0.20354,-16.86801305 l -0.0262,-4.56488995 -41.34115,0.06697 -41.3411466,0.06697 -0.07773,1.918229 -0.07774,1.91822895 h -5.0433554 -5.043382 l 0.09742,-3.10885395 c 0.08866,-2.829319 0.172402,-3.267763 0.931307,-4.876168 1.108895,-2.350185 2.604267,-3.916703 4.782105,-5.009581 l 1.785541,-0.896022 48.017721,-0.06967 48.01772,-0.06967 20.575509,20.574241 20.57551,20.574238 -0.0116,56.621476 c -0.006,31.141814 -0.11007,57.470134 -0.2304,58.507404 -0.42606,3.6726 -2.28505,6.28002 -5.79091,8.1223 l -1.84968,0.97197 H 92.788301 66.567081 Z M 111.77742,27.308812 C 111.95228,27.145355 100.02719,14.979686 92.750301,7.897828 l -7.06051,-6.871277 -0.16857,1.612918 c -0.2377,2.274113 -0.21087,24.686692 0.0299,24.935757 0.18693,0.193426 26.015129,-0.06894 26.226349,-0.266414 z m 23.58146,98.309708 v -5.02709 h 25.13542 25.13542 V 68.733096 16.874764 l -15.67657,-0.0053 c -8.62211,-0.0029 -16.41877,-0.112673 -17.32592,-0.24388 -3.24467,-0.469304 -6.07724,-2.644187 -7.58341,-5.8226 l -0.8214,-1.73341 -0.0681,-15.875 c -0.0375,-8.73125 -0.13216,-16.261953 -0.21042,-16.734896 l -0.14232,-0.859896 H 102.40627 61.010961 v 1.984375 1.984375 h -5.066 -5.06603 l 0.14629,-3.174997 c 0.1307,-2.837035 0.23492,-3.365101 0.97893,-4.960938 1.10051,-2.36048 2.77257,-4.029128 5.13649,-5.125974 l 1.88595,-0.875098 47.683549,-0.105971 47.68358,-0.105968 20.6474,20.591881 20.64742,20.591877 -0.0685,58.218523 -0.0685,58.218523 -0.61399,1.52047 c -0.84177,2.08453 -2.78646,4.13799 -5.04055,5.32248 l -1.83118,0.96226 H 161.71239 135.35888 Z M 180.48526,6.53186 c 0.10261,-0.165996 -5.37379,-5.84881305 -12.88283,-13.368432 l -13.06126,-13.079698 -0.16166,7.613745 c -0.0889,4.187563 -0.17819,10.203357 -0.19844,13.368435 l -0.0368,5.754688 h 13.08126 c 9.16493,0 13.13469,-0.08644 13.2597,-0.288738 z M 66.567211,115.43206 v -4.89479 l 16.99948,0.005 c 9.34972,0.003 17.755949,0.11468 18.680509,0.24835 0.94803,0.13706 1.91612,0.45201 2.22017,0.72229 1.35311,1.20275 1.92935,4.17622 1.15846,5.97785 -0.51652,1.20723 -1.78615,2.30916 -2.97961,2.58607 -0.56195,0.13039 -8.909599,0.23991 -18.550359,0.24339 l -17.52865,0.006 z M 135.35888,94.662266 v -5.02709 l 14.61823,0.0183 c 17.3042,0.0216 21.97161,0.19998 23.00576,0.87917 1.74731,1.14754 2.42223,4.97857 1.19732,6.79621 -1.13692,1.68706 -1.90691,1.99301 -5.5023,2.18634 -1.78179,0.0958 -10.00747,0.17419 -18.2793,0.17419 H 135.35888 Z M 66.567211,84.334776 v -5.03583 l 18.07737,0.0749 18.077359,0.0749 1.09972,0.7279 c 1.40221,0.92814 2.16847,2.40608 2.16847,4.18251 0,1.74437 -0.58399,2.95206 -1.98107,4.09686 l -1.11614,0.9146 H 84.730071 66.567211 Z M 135.35888,63.41429 v -5.054222 l 17.92552,0.09328 17.92552,0.09329 1.19346,0.701659 c 1.60488,0.943539 2.37842,2.348998 2.37842,4.321464 0,1.861545 -0.54618,3.070705 -1.85542,4.107635 l -0.99885,0.79112 H 153.6432 135.35888 Z M 66.567211,53.387264 v -5.027083 h 18.20863 18.208619 l 1.14038,0.976127 c 1.35396,1.158926 1.86738,2.256835 1.85947,3.976312 -0.009,1.885207 -0.78946,3.359065 -2.28052,4.30466 l -1.25685,0.797068 H 84.507081 66.567211 Z m 68.852099,-20.703646 0.0719,-5.093229 18.25625,0.09698 18.25625,0.09698 1.00015,0.791454 c 1.35851,1.075023 1.77798,1.996747 1.77798,3.906774 0,2.239216 -0.67437,3.475831 -2.45113,4.494813 l -1.38533,0.794485 -17.79894,0.0024 -17.79895,0.0024 0.0719,-5.093229 z"
       id="path12"
       inkscape:connector-curvature="0" />
  </g>
</svg>
