<?xml version="1.0" encoding="UTF-8" standalone="no"?>
<!-- Generator: Adobe Illustrator 19.0.0, SVG Export Plug-In . SVG Version: 6.00 Build 0)  -->

<svg
   xmlns:dc="http://purl.org/dc/elements/1.1/"
   xmlns:cc="http://creativecommons.org/ns#"
   xmlns:rdf="http://www.w3.org/1999/02/22-rdf-syntax-ns#"
   xmlns:svg="http://www.w3.org/2000/svg"
   xmlns="http://www.w3.org/2000/svg"
   xmlns:sodipodi="http://sodipodi.sourceforge.net/DTD/sodipodi-0.dtd"
   xmlns:inkscape="http://www.inkscape.org/namespaces/inkscape"
   version="1.1"
   id="Capa_1"
   x="0px"
   y="0px"
   viewBox="0 0 512 512"
   style="enable-background:new 0 0 512 512;"
   xml:space="preserve"
   sodipodi:docname="560463.svg"
   inkscape:version="0.92.3 (2405546, 2018-03-11)"><metadata
   id="metadata49"><rdf:RDF><cc:Work
       rdf:about=""><dc:format>image/svg+xml</dc:format><dc:type
         rdf:resource="http://purl.org/dc/dcmitype/StillImage" /><dc:title></dc:title></cc:Work></rdf:RDF></metadata><defs
   id="defs47" /><sodipodi:namedview
   pagecolor="#ffffff"
   bordercolor="#666666"
   borderopacity="1"
   objecttolerance="10"
   gridtolerance="10"
   guidetolerance="10"
   inkscape:pageopacity="0"
   inkscape:pageshadow="2"
   inkscape:window-width="666"
   inkscape:window-height="480"
   id="namedview45"
   showgrid="false"
   inkscape:zoom="0.4609375"
   inkscape:cx="256"
   inkscape:cy="256"
   inkscape:window-x="0"
   inkscape:window-y="27"
   inkscape:window-maximized="0"
   inkscape:current-layer="g12" />
<g
   id="g6"
   style="fill:#ffffff">
	<g
   id="g4"
   style="fill:#ffffff">
		<path
   d="M463.702,162.655L442.491,14.164c-1.744-12.174-16.707-17.233-25.459-8.481l-30.894,30.894    C346.411,12.612,301.309,0,254.932,0C115.464,0,3.491,109.16,0.005,248.511c-0.19,7.617,5.347,14.15,12.876,15.234l59.941,8.569    c8.936,1.304,17.249-5.712,17.125-15.058C88.704,165.286,162.986,90,254.932,90c22.265,0,44.267,4.526,64.6,13.183l-29.78,29.78    c-8.697,8.697-3.761,23.706,8.481,25.459l148.491,21.211C456.508,181.108,465.105,172.599,463.702,162.655z"
   id="path2"
   style="fill:#ffffff" />
	</g>
</g>
<g
   id="g12">
	<g
   id="g10"
   style="fill:#ffffff">
		<path
   d="M499.117,249.412l-59.897-8.555c-7.738-0.98-17.124,5.651-17.124,16.143c0,90.981-74.019,165-165,165    c-22.148,0-44.048-4.482-64.306-13.052l28.828-28.828c8.697-8.697,3.761-23.706-8.481-25.459L64.646,333.435    c-9.753-1.393-18.39,6.971-16.978,16.978l21.21,148.492c1.746,12.187,16.696,17.212,25.459,8.481l31.641-31.626    C165.514,499.505,210.587,512,257.096,512c138.794,0,250.752-108.618,254.897-247.28    C512.213,257.088,506.676,250.496,499.117,249.412z"
   id="path8"
   style="fill:#ffffff" />
	</g>
</g>
<g
   id="g14">
</g>
<g
   id="g16">
</g>
<g
   id="g18">
</g>
<g
   id="g20">
</g>
<g
   id="g22">
</g>
<g
   id="g24">
</g>
<g
   id="g26">
</g>
<g
   id="g28">
</g>
<g
   id="g30">
</g>
<g
   id="g32">
</g>
<g
   id="g34">
</g>
<g
   id="g36">
</g>
<g
   id="g38">
</g>
<g
   id="g40">
</g>
<g
   id="g42">
</g>
</svg>