<?xml version="1.0" encoding="UTF-8" standalone="no"?>
<!-- Created with Inkscape (http://www.inkscape.org/) -->

<svg
   xmlns:dc="http://purl.org/dc/elements/1.1/"
   xmlns:cc="http://creativecommons.org/ns#"
   xmlns:rdf="http://www.w3.org/1999/02/22-rdf-syntax-ns#"
   xmlns:svg="http://www.w3.org/2000/svg"
   xmlns="http://www.w3.org/2000/svg"
   xmlns:sodipodi="http://sodipodi.sourceforge.net/DTD/sodipodi-0.dtd"
   xmlns:inkscape="http://www.inkscape.org/namespaces/inkscape"
   version="1.1"
   id="svg2"
   width="450"
   height="512"
   viewBox="0 0 450 512"
   sodipodi:docname="save_white.svg"
   inkscape:version="0.92.3 (2405546, 2018-03-11)">
  <metadata
     id="metadata8">
    <rdf:RDF>
      <cc:Work
         rdf:about="">
        <dc:format>image/svg+xml</dc:format>
        <dc:type
           rdf:resource="http://purl.org/dc/dcmitype/StillImage" />
        <dc:title></dc:title>
      </cc:Work>
    </rdf:RDF>
  </metadata>
  <defs
     id="defs6" />
  <sodipodi:namedview
     pagecolor="#ffffff"
     bordercolor="#666666"
     borderopacity="1"
     objecttolerance="10"
     gridtolerance="10"
     guidetolerance="10"
     inkscape:pageopacity="0"
     inkscape:pageshadow="2"
     inkscape:window-width="1920"
     inkscape:window-height="1016"
     id="namedview4"
     showgrid="false"
     inkscape:zoom="0.4609375"
     inkscape:cx="623.1017"
     inkscape:cy="258.16949"
     inkscape:window-x="0"
     inkscape:window-y="27"
     inkscape:window-maximized="1"
     inkscape:current-layer="svg2"
     fit-margin-top="0"
     fit-margin-left="0"
     fit-margin-right="0"
     fit-margin-bottom="0" />
  <path
     style="fill:#ffffff"
     d="M 0,256 V 0 H 175.75379 351.50758 L 400.7538,49.25375 450,98.507499 V 305.25375 512 H 225 0 Z m 420,40.75452 V 111.50904 L 379.25457,70.754519 338.50916,30 h -4.25458 -4.25457 v 60 60 h -105 -105 V 90 30 H 75.000005 30 v 226 226 h 195.00001 195 z M 90.000005,347 V 242 H 225 360 V 347 452 H 225 90.000005 Z M 330,347 V 272 H 225 120 v 75 75 h 105 105 z m -180,30 v -15 h 75 75 v 15 15 h -75 -75 z m 0,-60 v -15 h 75 75 v 15 15 H 225 150 Z M 240,75 V 30 h -45 -45 v 45 45 h 45 45 z m 60,0 V 30 h -15 -15 v 45 45 h 15 15 z"
     id="path3715"
     inkscape:connector-curvature="0" />
</svg>
